<?xml version="1.0" encoding="utf-8"?>
<!-- Generator: Adobe Illustrator 25.1.0, SVG Export Plug-In . SVG Version: 6.00 Build 0)  -->
<svg version="1.1" id="book" xmlns="http://www.w3.org/2000/svg" xmlns:xlink="http://www.w3.org/1999/xlink" x="0px" y="0px"
	 viewBox="0 0 314.6 206.9" style="enable-background:new 0 0 314.6 206.9;" xml:space="preserve">
<style type="text/css">
	.st0{fill:#231F20;}
	.st1{fill:none;stroke:#FFFFFF;stroke-miterlimit:10;}

	#black-bg { cursor: pointer; }
  #black-bg:hover { fill: #ff761a !important; }
</style>
<path id="black-bg" class="st0" d="M11.8,11.3L0,180.9c81.8-10.5,135.7,19.9,135.7,19.9s-10,6.1,15.5,6.1s11.9-6.1,11.9-6.1
	s51.3-28,151.5-17.5L299.4,11.3c0,0-4.3-0.6-6.9,0l-9.6-10.4c0,0-86.2-6.3-127.7,31.3c0,0-34.2-36.8-122.6-31.7L21.8,12.2
	C21.8,12.2,18.9,11,11.8,11.3z"/>
<g id="lines">
	<path id="line_1_" class="st1" d="M292.5,10.6l13,163.7c-102-3.5-144.1,25.5-144.1,25.5c-10.6-5.4-24-0.8-24-0.8
		C88,165.8,9.1,173.1,9.1,173.1L21.8,11.5 M9.1,173.8 M305.5,174.9l-13-11.7 M155.2,32.2l-5.4,165 M32.5,0.5L20.7,164.9
		c93.8-10.6,129.1,31.6,129.1,31.6c52.3-42.8,142.6-33.3,142.6-33.3L282.9,0.9 M9.1,173.8l11.7-8.9 M156.6,198
		c48.9-35.9,142.9-28.5,142.9-28.5l-11.4-163 M153.4,197.3c48.2-38.7,142.7-30.8,142.7-30.8L286,3.4 M159.4,199
		c48.3-34,143-27.1,143-27.1l-12-164.2 M27,6.5L14.9,169.4c0,0,89.4-9.7,127.8,28.3 M24.3,9.3L12.5,171.5c0,0,86.3-9,127.2,26.7
		 M29.3,4L18.1,166.9c0,0,89.3-10.4,128.8,30.3"/>
</g>
</svg>
