<?xml version="1.0" encoding="utf-8"?>
<!-- Generator: Adobe Illustrator 25.1.0, SVG Export Plug-In . SVG Version: 6.00 Build 0)  -->
<svg version="1.1" id="game-pad" xmlns="http://www.w3.org/2000/svg" xmlns:xlink="http://www.w3.org/1999/xlink" x="0px" y="0px"
	 viewBox="0 0 785.1 739.1" style="enable-background:new 0 0 785.1 739.1;" xml:space="preserve">
<style type="text/css">
	.st0{fill:#231F20;}
	.st1{fill:#FFFFFF;}
	.st2{display:none;fill:#FFFFFF;stroke:#231F20;stroke-width:3;stroke-miterlimit:10;}

	#black-bg { cursor: pointer; }
  #black-bg:hover { fill: #ff761a !important; }
</style>
<path id="black-bg" class="st0" d="M634.5,376.5H491.4l-10.9-40h-80.8c-1.2-18.1-1.5-60.3,18.3-85.4c9.1-11.5,21-17.9,36.6-19.5
	c28.9-3,45.6-12.8,49.5-29.3c6.1-25.5-22.8-61.6-77.2-96.4C361.4,64,385.6,9,386.6,6.8L372.1,0c-0.3,0.7-8.2,17.9-6.3,41.2
	c1.7,21.4,12.2,52.4,52.4,78.1c53.2,34,73.7,65,70.3,79.3c-2.8,12-23.5,15.9-35.5,17.1c-19.8,2-35.8,10.7-47.5,25.6
	c-22.9,29.1-23.1,74.6-21.8,95.3h-77.5l-12.5,40H150.6c-82.5,0-150,67.5-150,150v62.1c0,82.5,67.5,150,150,150h483.9
	c82.5,0,150-67.5,150-150v-62.1C784.5,444,717,376.5,634.5,376.5z"/>
<g id="left-button">
	<path id="d-pad-outline" class="st1" d="M254.3,520.7h-46v-46c0-6.6-5.4-12-12-12h-37c-6.6,0-12,5.4-12,12v46h-46
		c-6.6,0-12,5.4-12,12v37c0,6.6,5.4,12,12,12h46v46c0,6.6,5.4,12,12,12h37c6.6,0,12-5.4,12-12v-46h46c6.6,0,12-5.4,12-12v-37
		C266.3,526.1,260.9,520.7,254.3,520.7z"/>
	<path id="d-pad_1_" class="st2" d="M250.8,522.4h-43.8v-43.5c0-6.2-5.1-11.3-11.4-11.3h-35.3c-6.3,0-11.4,5.1-11.4,11.3v43.5h-43.8
		c-6.3,0-11.4,5.1-11.4,11.3v35c0,6.2,5.1,11.3,11.4,11.3h43.8v43.5c0,6.2,5.1,11.3,11.4,11.3h35.3c6.3,0,11.4-5.1,11.4-11.3v-43.5
		h43.8c6.3,0,11.4-5.1,11.4-11.3v-35C262.2,527.5,257.1,522.4,250.8,522.4z"/>
</g>
<path id="buttons" class="st1" d="M637.4,492c0,16.4-13.3,29.6-29.6,29.6c-16.4,0-29.6-13.3-29.6-29.6c0-16.4,13.3-29.6,29.6-29.6
	C624.1,462.3,637.4,475.6,637.4,492z M607.8,580.8c-16.4,0-29.6,13.3-29.6,29.6c0,16.4,13.3,29.6,29.6,29.6
	c16.4,0,29.6-13.3,29.6-29.6C637.4,594.1,624.1,580.8,607.8,580.8z M548.5,521.6c-16.4,0-29.6,13.3-29.6,29.6
	c0,16.4,13.3,29.6,29.6,29.6c16.4,0,29.6-13.3,29.6-29.6C578.2,534.8,564.9,521.6,548.5,521.6z M667,521.6
	c-16.4,0-29.6,13.3-29.6,29.6c0,16.4,13.3,29.6,29.6,29.6c16.4,0,29.6-13.3,29.6-29.6C696.6,534.8,683.4,521.6,667,521.6z"/>
<path id="small-buttons" class="st1" d="M368.3,639.7c0,10.2-8.3,18.5-18.5,18.5c-10.2,0-18.5-8.3-18.5-18.5
	c0-10.2,8.3-18.5,18.5-18.5C360,621.2,368.3,629.5,368.3,639.7z M435.2,621.2c-10.2,0-18.5,8.3-18.5,18.5c0,10.2,8.3,18.5,18.5,18.5
	s18.5-8.3,18.5-18.5C453.7,629.5,445.5,621.2,435.2,621.2z"/>
</svg>
