<?xml version="1.0" encoding="utf-8"?>
<!-- Generator: Adobe Illustrator 25.1.0, SVG Export Plug-In . SVG Version: 6.00 Build 0)  -->
<svg version="1.1" id="headphone" xmlns="http://www.w3.org/2000/svg" xmlns:xlink="http://www.w3.org/1999/xlink" x="0px" y="0px"
	 viewBox="0 0 258.8 258.7" style="enable-background:new 0 0 258.8 258.7;" xml:space="preserve">
<style type="text/css">
	.st0{fill:#231F20;}

	#black-bg { cursor: pointer; }
  #black-bg:hover { fill: #ff761a !important; }
</style>
<path id="black-bg" class="st0" d="M241.1,46.1C220.8,16.3,183.9,0.8,131.5,0v0c-0.7,0-1.4,0-2.1,0c-0.7,0-1.4,0-2.1,0v0
	C74.8,0.8,37.9,16.3,17.6,46.1C-6.3,81.3-1,127.4,5.5,154.9c-1.8,2-2.8,4.7-2.5,7.5l8.8,86.7c0.6,5.8,6.4,10.1,13,9.6l47.1-3.7
	c6.6-0.5,11.5-5.7,10.9-11.5L74,156.8c-0.6-5.8-6.4-10.1-13-9.6l-42,3.3C13.2,125.2,8.6,84.2,29.2,54c11.8-17.4,30.7-29.1,56.3-35.2
	l4,11.1c0.4-0.1,39.1-13.8,83,0.1l3.3-10.5c24.2,6.2,42.2,17.7,53.6,34.5c20.6,30.1,16,71.3,10.2,96.6l-42-3.3
	c-6.6-0.5-12.4,3.8-13,9.6l-8.8,86.7c-0.6,5.8,4.3,10.9,10.9,11.5l47.1,3.7c6.6,0.5,12.4-3.8,13-9.6l8.8-86.7
	c0.3-2.8-0.7-5.4-2.5-7.5C259.8,127.4,265.1,81.3,241.1,46.1z"/>
</svg>
