<?xml version="1.0" encoding="utf-8"?>
<!-- Generator: Adobe Illustrator 25.1.0, SVG Export Plug-In . SVG Version: 6.00 Build 0)  -->
<svg version="1.1" id="laptop" xmlns="http://www.w3.org/2000/svg" xmlns:xlink="http://www.w3.org/1999/xlink" x="0px" y="0px"
	 viewBox="0 0 627.7 476.7" style="enable-background:new 0 0 627.7 476.7;" xml:space="preserve">
<style type="text/css">
	.st0{fill:#231F20;}
	.st1{fill:#FFFFFF;}
	.st2{display:none;fill:#231F20;}
	.st3{fill:none;stroke:#FFFFFF;stroke-width:2;stroke-miterlimit:10;}

	#black-bg { cursor: pointer; }
  #black-bg:hover { fill: #ff761a !important; }
</style>
<path id="black-bg" class="st0" d="M558.8,331H60.6c-5.5,0-10-4.5-10-10V10c0-5.5,4.5-10,10-10h498.3c5.5,0,10,4.5,10,10v311
	C568.8,326.5,564.3,331,558.8,331z M626.8,462.6l-55.4-124.1c-1.6-3.6-5.2-5.9-9.1-5.9H57.4c-4.1,0-7.9,2.6-9.3,6.4L0.7,463.1
	c-2.5,6.5,2.3,13.6,9.3,13.6h607.7C624.9,476.7,629.8,469.2,626.8,462.6z"/>
<g id="keyboard">
	<polygon id="bg" class="st1" points="577.6,418.1 47.7,418.1 74.2,343.3 545.4,343.3 	"/>
	<path id="buttons" class="st2" d="M577.6,404.2h-26l-5.4-12.6h23.6v-2h-24.4l-5.2-12.2h29.6v-2h-30.5L534,363h34.9v-2h-35.7
		l-4.7-10.9h40.4v-2h-41.2l-4.2-9.8l-1.8,0.8l3.9,9.1h-17.3l-4.7-11.6l-1.9,0.7l4.4,10.8h-16.5l-3.7-11.5l-1.9,0.6l3.5,10.9H470
		l-3-11.2l-1.9,0.5l2.9,10.7h-17.8l-2.6-11.2l-1.9,0.5l2.5,10.7h-19.9l-2.2-12.5l-2,0.3l2.1,12.1h-19.8l-1.6-12.4l-2,0.3l1.6,12.2
		h-19.7l-1.1-12.4l-2,0.2l1.1,12.2h-20.1l-0.8-12.2l-2,0.1l0.8,12.1h-18.9l-0.5-12.8l-2,0.1l0.5,12.7h-18.4v-9.8h-2v9.8h-17.6l0.2-9
		l-2-0.1l-0.3,9h-19.4l0.4-9.7l-2-0.1l-0.4,9.8H258l1-9.6l-2-0.2l-1,9.8h-19.8l1.3-10.2l-2-0.3l-1.3,10.4h-19.3l1.3-10.2l-2-0.3
		l-1.3,10.4h-19.8l1.7-11.6l-2-0.3l-1.8,11.9h-19l1.6-9.6l-2-0.3l-1.6,9.9h-19l2-9.5l-2-0.4l-2.1,9.9h-17l1.9-8.3l-1.9-0.5l-2,8.7
		h-16l2.5-9l-1.9-0.5l-2.6,9.6H93.3l3.2-10.2l-1.9-0.6l-3.4,10.8H50.6v2h40L87.1,361H50.6v2h36l-3.9,12.5H51.5v2H82l-3.8,12.2H51.5
		v2h26l-4,12.6H40.1v2h32.8l-8.4,26.6l1.9,0.6l8.6-27.2h21.1l-6,22.2l1.9,0.5l6.2-22.7h18.1l-4.3,18.2l1.9,0.5l4.4-18.6h18.4
		l-4.8,22.7l2,0.4l4.9-23.1h21.7l-4.5,27.2l2,0.3l4.5-27.5h19.9l-4,26.6l2,0.3l4-26.9h21l-3.4,26.6l2,0.3l3.4-26.9h19.3l-3.4,26.6
		l2,0.3l3.4-26.9h21.1l-2.1,19.9l2,0.2l2.1-20.1h23.8l-1.2,27.2l2,0.1l1.2-27.2h20.5l-0.8,28.8l2,0.1l0.8-28.9h19.2v28.8h2v-28.8
		h20.6l0.9,24.8l2-0.1l-0.9-24.7h20.4l1.5,24l2-0.1l-1.5-23.9H388l2.1,22.7l2-0.2l-2-22.5h21.9l2.8,21.9l2-0.3l-2.8-21.7h22.5
		l3.5,20.1l2-0.3l-3.5-19.7h23.4l5,20.9l1.9-0.5l-4.8-20.5h19.8l5.1,18.8l1.9-0.5l-5-18.3h20.5l5.6,17.2l1.9-0.6l-5.4-16.6h21.1
		l6.3,15.6l1.9-0.7l-6-14.9h18.7l6.6,15.4l1.8-0.8l-6.2-14.6h25.1V404.2z M343.8,404.2l-0.5-12.6h20l0.8,12.6H343.8z M275.8,404.2
		h-23.7l1.3-12.6h22.9L275.8,404.2z M229,404.2l1.6-12.6h20.8l-1.3,12.6H229z M207.7,404.2l1.6-12.6h19.3l-1.6,12.6H207.7z
		 M184.7,404.2l1.9-12.6h20.7l-1.6,12.6H184.7z M162.8,404.2l2.1-12.6h19.6l-1.9,12.6H162.8z M139.2,404.2l2.7-12.6h21l-2.1,12.6
		H139.2z M118.8,404.2l3-12.6h18l-2.7,12.6H118.8z M129.5,350.1l-2.6,10.9h-16.4l3-10.9H129.5z M148.6,350.1l-2.3,10.9H129l2.6-10.9
		H148.6z M169.7,350.1l-1.8,10.9h-19.6l2.3-10.9H169.7z M278.2,350.1l-0.5,10.9h-21.1l1.2-10.9H278.2z M280.2,350.1h19.5l-0.3,10.9
		h-19.7L280.2,350.1z M301.7,350.1h17.6V361h-17.9L301.7,350.1z M426.5,350.1l1.9,10.9H408l-1.4-10.9H426.5z M448.5,350.1l2.6,10.9
		h-20.7l-1.9-10.9H448.5z M388.5,389.6l-1.1-12.2h20.8l1.6,12.2H388.5z M363.3,389.6h-20l-0.4-12.2h19.7L363.3,389.6z M341.3,389.6
		h-20v-12.2h19.5L341.3,389.6z M319.3,391.6v12.6h-19.1l0.4-12.6H319.3z M319.3,389.6h-18.7l0.3-12.2h18.4V389.6z M298.9,377.4
		l-0.3,12.2h-20.2l0.6-12.2H298.9z M230.9,389.6l1.6-12.2h20.4l-1.3,12.2H230.9z M209.6,389.6l1.6-12.2h19.3l-1.6,12.2H209.6z
		 M186.9,389.6l1.8-12.2h20.4l-1.6,12.2H186.9z M165.3,389.6l2-12.2h19.4l-1.8,12.2H165.3z M142.3,389.6l2.6-12.2h20.3l-2,12.2
		H142.3z M122.3,389.6l2.8-12.2h17.7l-2.6,12.2H122.3z M107.9,363l-3.4,12.5H84.7l3.9-12.5H107.9z M126.5,363l-2.9,12.5h-17L110,363
		H126.5z M145.9,363l-2.6,12.5h-17.7l2.9-12.5H145.9z M167.6,363l-2.1,12.5h-20.3l2.6-12.5H167.6z M232.7,375.4l1.6-12.5h20.1
		l-1.3,12.5H232.7z M232.3,363l-1.6,12.5h-19.3L213,363H232.3z M189,375.4l1.9-12.5H211l-1.6,12.5H189z M188.9,363l-1.9,12.5h-19.4
		l2.1-12.5H188.9z M104,377.4l-3.3,12.2H80.2l3.8-12.2H104z M102.7,389.6l3.3-12.2h17.1l-2.8,12.2H102.7z M277,377.4l-0.6,12.2
		h-22.8l1.3-12.2H277z M255.1,375.4l1.3-12.5h21.2l-0.6,12.5H255.1z M279.1,375.4l0.6-12.5h19.7l-0.3,12.5H279.1z M301,375.4
		l0.3-12.5h18v12.5H301z M321.3,375.4V363h19l0.5,12.5H321.3z M341.8,350.1h18.9l0.7,10.9h-19.2L341.8,350.1z M362.8,350.1h20.1
		l1,10.9h-20.4L362.8,350.1z M428.8,363l2.2,12.5h-21.1l-1.6-12.5H428.8z M451.6,363l2.9,12.5H433l-2.2-12.5H451.6z M502.9,389.6
		l-3.9-12.2h18.8l4.9,12.2H502.9z M492.2,363l4,12.5h-18.9L474,363H492.2z M498.4,375.4l-4-12.5H512l5,12.5H498.4z M493.7,361
		l-3.5-10.9h16.6l4.4,10.9H493.7z M473.4,361l-3-10.9H488l3.5,10.9H473.4z M471.9,363l3.4,12.5h-18.7l-2.9-12.5H471.9z M435.5,389.6
		l-2.1-12.2H455l2.9,12.2H435.5z M387.2,375.4l-1.1-12.5h20.2l1.6,12.5H387.2z M385.2,375.4h-20.8l-0.8-12.5H384L385.2,375.4z
		 M361.6,363l0.8,12.5h-19.6l-0.5-12.5H361.6z M385.4,377.4l1.1,12.2h-21.2l-0.8-12.2H385.4z M431.3,377.4l2.1,12.2h-21.7l-1.6-12.2
		H431.3z M458.4,391.6l3,12.6h-23.3l-2.2-12.6H458.4z M459.9,389.6l-2.9-12.2h18.8l3.3,12.2H459.9z M496.9,377.4l3.9,12.2h-19.6
		l-3.3-12.2H496.9z M523.5,391.6l5.1,12.6h-20.9l-4.1-12.6H523.5z M524.8,389.6l-4.9-12.2h18l5.2,12.2H524.8z M519.1,375.4l-5-12.5
		h17.7l5.3,12.5H519.1z M513.3,361l-4.4-10.9h17.4l4.7,10.9H513.3z M468.4,350.1l3,10.9h-18.2l-2.6-10.9H468.4z M385.9,361l-1-10.9
		h19.7L406,361H385.9z M321.3,350.1h18.5l0.4,10.9h-18.9V350.1z M254.6,361h-20.1l1.4-10.9h19.9L254.6,361z M233.9,350.1l-1.4,10.9
		h-19.3l1.4-10.9H233.9z M211.2,361h-20.1l1.6-10.9h19.8L211.2,361z M190.8,350.1l-1.6,10.9H170l1.8-10.9H190.8z M108.4,361H89.2
		l3.4-10.9h18.7L108.4,361z M79.6,391.6h20.5l-3.4,12.6h-21L79.6,391.6z M98.8,404.2l3.4-12.6h17.6l-3,12.6H98.8z M278.3,391.6h20.2
		l-0.4,12.6h-20.4L278.3,391.6z M321.3,404.2v-12.6h20.1l0.5,12.6H321.3z M386.6,391.6l1.1,12.6h-21.6l-0.8-12.6H386.6z
		 M389.8,404.2l-1.1-12.6H410l1.6,12.6H389.8z M433.8,391.6l2.2,12.6h-22.4l-1.6-12.6H433.8z M463.4,404.2l-3-12.6h19.3l3.4,12.6
		H463.4z M501.5,391.6l4.1,12.6h-20.4l-3.4-12.6H501.5z M530.8,404.2l-5.1-12.6H544l5.4,12.6H530.8z"/>
</g>
<rect id="screen" x="65.5" y="17.2" class="st3" width="488.4" height="286"/>
<path id="camera_3_" class="st1" d="M316.6,8c0,1.5-1.2,2.8-2.8,2.8s-2.8-1.2-2.8-2.8s1.2-2.8,2.8-2.8S316.6,6.4,316.6,8z
	 M304.5,6.8c-0.6,0-1.2,0.5-1.2,1.2s0.5,1.2,1.2,1.2c0.6,0,1.2-0.5,1.2-1.2S305.2,6.8,304.5,6.8z"/>
<polygon id="touch-pad" class="st1" points="388.3,467.6 239.4,467.6 245.1,426.9 382.6,426.9 "/>
</svg>
