<?xml version="1.0" encoding="utf-8"?>
<!-- Generator: Adobe Illustrator 25.1.0, SVG Export Plug-In . SVG Version: 6.00 Build 0)  -->
<svg version="1.1" xmlns="http://www.w3.org/2000/svg" xmlns:xlink="http://www.w3.org/1999/xlink" x="0px" y="0px"
	 viewBox="0 0 559.4 427.1" style="enable-background:new 0 0 559.4 427.1;" xml:space="preserve">
<style type="text/css">
	.st0{fill:#231F20;stroke:#FFFFFF;stroke-miterlimit:10;}
	.st1{fill:#FFFFFF;}
	.st2{fill:none;stroke:#FFFFFF;stroke-width:2;stroke-miterlimit:10;}

	#black-bg-p { cursor: pointer; }
  #black-bg-p:hover { fill: #ff761a !important; }

	#black-bg-s_1_ { cursor: pointer; }
  #black-bg-s_1_:hover { fill: #ff761a !important; }
</style>
<g id="pan">
	<path id="black-bg-p" class="st0" d="M236.8,41C182.8-13,95.1-13,41,41S-13,182.8,41,236.8c51.6,51.6,133.8,53.9,188.2,7.1
		l12.3,12.3c-0.7,3.4,0.3,7.1,2.9,9.7l0.6,0.6c-1.2,5.7,0.5,11.8,4.8,16.2L386,418.8c6.9,6.9,18.3,6.9,25.2,0l0.6-0.6l6.4-6.4
		l0.6-0.6c6.9-6.9,6.9-18.3,0-25.2L282.7,249.9c-4.4-4.4-10.5-6-16.2-4.8l-0.6-0.6c-2.6-2.6-6.3-3.6-9.7-2.9l-12.3-12.3
		C290.8,174.8,288.4,92.6,236.8,41z"/>
	<circle id="handle_hole" class="st1" cx="395.5" cy="395.5" r="10"/>
	<path id="outlines" class="st2" d="M233,44.9c52,52,52,136.2,0,188.2s-136.2,52-188.2,0s-52-136.2,0-188.2S181.1-7.1,233,44.9z
		 M128.2,128.2c-5.9,5.9-5.9,15.5,0,21.5s15.5,5.9,21.5,0s5.9-15.5,0-21.5S134.1,122.3,128.2,128.2z M62.6,62.6
		c-42.1,42.1-42.1,110.5,0,152.6s110.5,42.1,152.6,0s42.1-110.5,0-152.6S104.8,20.5,62.6,62.6z M422.3,389.5L280.8,248
		c-5-5-13.3-5-18.3,0L248,262.5c-5,5-5,13.3,0,18.3l141.5,141.5c5,5,13.3,5,18.3,0l14.5-14.5C427.3,402.7,427.3,394.5,422.3,389.5z"
		/>
</g>
<g id="spatula">
	<path id="black-bg-s_1_" class="st0" d="M214,393.5c-2.1-2.1-2-6-2-6c6.8-33.2,88.6-102.6,102.6-116.6s14.5-5.7,14.5-5.7
		s68.6-62.2,53.2-77c-15.4-14.8-7.9-23.5-7.9-23.5s32.5-44.9,60-84c27.5-39.1,49-31.4,49-31.4s13-1.4,44.6,30.2 M214,393.5
		c2.1,2.1,6,2,6,2c33.2-6.8,102.6-88.6,116.6-102.6c14-14,5.7-14.5,5.7-14.5s62.2-68.6,77-53.2s23.5,7.9,23.5,7.9s44.9-32.5,84-60
		s31.4-49,31.4-49s1.4-13-30.2-44.6"/>
	<g id="holes">
		<path id="hole_2_" class="st1" d="M238.5,379.2c-2.8,2.8-7.4,2.8-10.3,0c-2.8-2.8-2.8-7.4,0-10.3c2.8-2.8,7.4-2.8,10.3,0
			C241.4,371.8,241.4,376.4,238.5,379.2z M500,107.5c-3-3-21.4,10.7-41.2,30.4c-19.8,19.8-33.4,38.2-30.4,41.2
			c3,3,21.4-10.7,41.2-30.4C489.4,128.9,503,110.4,500,107.5z M478.6,86c-3-3-21.4,10.7-41.2,30.4c-19.8,19.8-33.4,38.2-30.4,41.2
			c3,3,21.4-10.7,41.2-30.4C468,107.5,481.6,89,478.6,86z M521.5,128.9c-3-3-21.4,10.7-41.2,30.4c-19.8,19.8-33.4,38.2-30.4,41.2
			c3,3,21.4-10.7,41.2-30.4C510.8,150.3,524.4,131.9,521.5,128.9z"/>
	</g>
</g>
</svg>
