<?xml version="1.0" encoding="utf-8"?>
<!-- Generator: Adobe Illustrator 25.1.0, SVG Export Plug-In . SVG Version: 6.00 Build 0)  -->
<svg version="1.1" id="tv" xmlns="http://www.w3.org/2000/svg" xmlns:xlink="http://www.w3.org/1999/xlink" x="0px" y="0px"
	 viewBox="0 0 1000 720.9" style="enable-background:new 0 0 1000 720.9;" xml:space="preserve">
<style type="text/css">
	.st0{fill:#231F20;}
	.st1{fill:none;stroke:#FFFFFF;stroke-width:1.9266;stroke-miterlimit:10;}

	#black-bg { cursor: pointer; }
  #black-bg:hover { fill: #ff761a !important; }
</style>
<path id="black-bg" class="st0" d="M996,128H507.6L620.3,3.4L616.6,0L500.8,128h-1.7L383.3,0l-3.7,3.4L492.4,128H4c-2.2,0-4,1.8-4,4
	v512.7c0,2.2,1.8,4,4,4h436.8v17.7l-333.9,54.5h786.2l-333.9-54.5v-17.7H996c2.2,0,4-1.8,4-4V132C1000,129.8,998.2,128,996,128z"/>
<path id="screen" class="st1" d="M971.3,628.2H28.7c-6.7,0-12.2-5.5-12.2-12.2V160.7c0-6.7,5.5-12.2,12.2-12.2h942.5
	c6.7,0,12.2,5.5,12.2,12.2V616C983.5,622.7,978,628.2,971.3,628.2z"/>
</svg>
